<svg version="1.1" id="Layer_1" xmlns="http://www.w3.org/2000/svg" x="0" y="0" viewBox="0 0 231.1 86.3" xml:space="preserve"><style>.st20{fill:#0e7575}.st220{fill:#e2dfce}.st399{fill:#f4e3d6}.st401{fill:#bbb199}</style><path class="st399" d="M186.5 48.3h15.9v14.8h-15.9z"/><path fill="#f2d0ba" d="M186.5 63.1V48.3h15.9z"/><path class="st220" d="M226.9 67.5c-2.5-3.7-24.5-11.8-24.5-11.8-1.4 4.1-4.6 6.2-8 6.4-3.4-.2-6.6-2.3-8-6.4 0 0-21.9 8.2-24.5 11.8-2.5 3.7-4.2 18.6-4.2 18.6h73.4c0 .1-1.7-14.9-4.2-18.6z"/><path class="st401" d="M207.4 64.5c.3-.2.6-.3.9-.5-.3.2-.6.4-.9.5zm-.9.5c.1-.1.3-.1.4-.2-.1.1-.3.1-.4.2zm.5-.2c.1-.1.2-.1.3-.2-.1.1-.2.1-.3.2zm.3-.2s.1 0 .1-.1c0 .1-.1.1-.1.1zm-1.2.6c.1-.1.3-.1.4-.2-.1.1-.2.1-.4.2zm.8-.4s.1 0 0 0c.1 0 0 0 0 0zm-1 .5c.1 0 .1-.1.2-.1-.1.1-.1.1-.2.1z"/><path class="st20" d="M194.4 62.1c-3.4-.2-6.6-2.3-8-6.4 0 0-2.1 7.4 2 11.7 3.1 3.2 6.8-3.7 6.3-5.3h-.3z"/><path class="st20" d="M194.3 62.1c3.4-.2 6.6-2.3 8-6.4 0 0 2.1 7.4-2 11.7-3.1 3.2-6.8-3.7-6.3-5.3h.3z"/><path class="st401" d="M205.8 65.4s.1-.1 0 0c.1-.1.1-.1 0 0zm4.3-2.3c.1 0 .1 0 0 0zm0 0zm0 .1c0-.1 0-.1 0 0 0-.1 0-.1 0 0zm0-.1zm-.1.1c.1 0 .1 0 0 0 .1 0 .1 0 0 0zm-1.7.9c.2-.1.5-.2.7-.4-.2.1-.4.2-.7.4zm1.1-.6c.1-.1.2-.1.3-.2 0 .1-.1.1-.3.2zm.6-.3zm-1 .5c.2-.1.3-.2.4-.2-.1.1-.2.1-.4.2zm.8-.4c.1 0 .2-.1.2-.1-.1 0-.2.1-.2.1z"/><path d="M226.9 67.5c-2.5-3.7-24.5-11.8-24.5-11.8-1.1 3.3-3.8 23.7-5.6 30.4h-5.1c-1.7-6.3-4-27.1-5.1-30.4 0 0-21.9 8.2-24.5 11.8-2.5 3.7-4.2 18.6-4.2 18.6h73.4c-.2.1-1.9-14.9-4.4-18.6z" fill="#c9c6c6"/><path class="st399" d="M194.4 13.6h-14.2l3.1 31.6s2.8 5.9 11.1 6.2c8.3-.3 11.1-6.2 11.1-6.2l3.1-31.6h-14.2z"/><path d="M194.9 4c7.8 0 17.5 2.1 18.6 27 .6 14.2-9.1 23.1-11.1 21.9 0 0-.5-2.3.5-5.8 1.2-4.3 4-10.8 3.4-20.2-.1-1.5-1.7-4.8-2.4-6.8-1.8-4.7-1-6-1-6s-2.2 5.2-5.8 7.7c-4.7 3.3-14 4.6-14 4.6s1.6-1.3 0 0c-1.4 1.2-.8 7.8.2 12.8.7 3.3 2.6 7.5 3.2 10.3.7 3 0 4.7 0 4.7-3.4-2.3-18.6-10.2-5.7-43 1-2.8 6.3-7.2 14.1-7.2z" fill="#392516"/><path class="st20" d="M184.4 67l-4.1 5.5 6.9 13.7h4.4l-5.1-30.5-9.4 3.7zm19.9 0l4.1 5.5-6.9 13.7h-4.4l5.1-30.5 9.4 3.7z"/><path d="M193.6 48.9h-.2l-5.7-.6c-.9-.1-1.5-1-1.4-2.1.1-1.1.9-1.9 1.7-1.7l5.7.6c.9.1 1.5 1 1.4 2.1 0 1-.7 1.7-1.5 1.7z" fill="#516b6d"/><path d="M188.4 46.1c0 .8-.7 1.5-1.5 1.5s-1.5-.7-1.5-1.5.7-1.5 1.5-1.5c.9 0 1.5.7 1.5 1.5z" fill="#12110b"/><path class="st220" d="M208.9 40.7c.8-.3 1.3-1 1.3-1.9l.2-16c0-1.1-.9-2-2-2s-2 .9-2 2l-.2 16c0 1.1.9 2 2 2 .2 0 .4 0 .7-.1zm-29 0c-.8-.3-1.3-1-1.3-1.9l-.2-16c0-1.1.9-2 2-2s2 .9 2 2l.2 16c0 1.1-.9 2-2 2-.2 0-.4 0-.7-.1z"/><path class="st20" d="M188.7 47.1c-12.4-1.7-14-6.7-14.2-8.7-.2-2.9 2-5.6 5.2-6.5l.4 1.5c-2.5.7-4.2 2.8-4.1 4.9.2 3.5 5 6.2 12.8 7.3l-.1 1.5zM210 24.5v14.4c4 0 7.2-3.2 7.2-7.2 0-3.9-3.2-7.2-7.2-7.2z"/><path class="st20" d="M178.8 24.5v14.4c-4 0-7.2-3.2-7.2-7.2 0-3.9 3.2-7.2 7.2-7.2z"/><path class="st20" d="M213.3 27.9l-2.2-.9c.9-2.1 1.3-4.4 1.3-6.7 0-9.9-8.1-18-18-18s-18 8.1-18 18c0 2.3.4 4.5 1.3 6.7l-2.2.9c-1-2.4-1.4-4.9-1.4-7.5 0-11.2 9.1-20.3 20.3-20.3 11.2 0 20.3 9.1 20.3 20.3 0 2.5-.5 5.1-1.4 7.5zM11.6 65.4H9.3c-.2-1.6-.9-2.3-2.2-2.3-.8 0-1.4.2-1.8.6-.4.4-.6 1-.6 1.7 0 .6.2 1.1.7 1.6l4.9 5.5c.9 1 1.4 2.1 1.4 3.3v1.1c0 1.3-.5 2.3-1.4 3.3s-2 1.4-3.3 1.4H4.7c-1.5 0-2.7-.4-3.5-1.2C.4 79.7 0 78.5 0 77h2.3v.4c0 .6.2 1.1.7 1.4s1 .5 1.6.5c.8 0 1.4-.2 1.8-.6.4-.4.5-1 .5-1.7 0-.6-.2-1.1-.7-1.6l-4.9-5.5c-.9-1-1.4-2.1-1.4-3.3v-1.1c0-1.3.5-2.3 1.4-3.3.9-.9 2-1.4 3.3-1.4h2.3c3 0 4.5 1.6 4.7 4.6zm2.4 0h4.6v2.3c0-.8.2-1.4.6-1.7.4-.4 1-.6 1.7-.6h2.3c1.3 0 2.3.5 3.2 1.4s1.4 2 1.4 3.3V77c0 1.3-.5 2.4-1.4 3.3-.9.9-2 1.4-3.3 1.4h-4.6v4.6h-4.6l.1-20.9zm4.6 14h2.3c.6 0 1.2-.2 1.7-.7.5-.5.7-1 .7-1.7v-6.9c0-.6-.2-1.2-.7-1.6-.5-.5-1-.7-1.7-.7-.6 0-1.2.2-1.6.7s-.7 1-.7 1.6v9.3zm25.6-4.7h-9.3V77c0 .6.2 1.2.7 1.6.5.5 1 .7 1.6.7h2.3c1.5 0 2.3-.8 2.3-2.3h2.3c-.4 3.1-1.9 4.6-4.6 4.6h-4.6c-1.3 0-2.3-.5-3.3-1.4-.9-.9-1.4-2-1.4-3.3V70c0-1.3.5-2.3 1.4-3.2.9-.9 2-1.4 3.3-1.4h4.6c1.3 0 2.3.5 3.2 1.4.9.9 1.4 2 1.4 3.3l.1 4.6zm-9.3-2.3h4.6v-2.3c0-.6-.2-1.2-.7-1.6-.5-.5-1-.7-1.7-.7-.6 0-1.2.2-1.6.7-.5.5-.7 1-.7 1.6l.1 2.3zm21 .1v-2.3c0-.6-.2-1.2-.7-1.6-.5-.5-1-.7-1.7-.7h-2.3c-1.4 0-2.1.8-2.3 2.3h-2.3c.4-3.1 1.9-4.6 4.6-4.6h4.6c1.3 0 2.3.5 3.2 1.4.9.9 1.4 2 1.4 3.3v11.6h-4.6v-2.3c-.2 1.5-1 2.3-2.3 2.3h-2.3c-1.3 0-2.3-.5-3.3-1.4-.9-.9-1.4-2-1.4-3.3 0-1.3.5-2.3 1.4-3.2.9-.9 2-1.4 3.3-1.4l4.7-.1zm0 2.3h-2.3c-.6 0-1.2.2-1.6.7-.5.5-.7 1-.7 1.6s.2 1.2.7 1.6c.5.5 1 .7 1.6.7.6 0 1.2-.2 1.7-.7.5-.5.7-1 .7-1.6l-.1-2.3zm7 6.9V60.9h4.6v10.4l7-5.8h4.6l-9.7 8.1 9.7 8.1h-4.6l-6.9-5.8v5.8h-4.7zm23.4-20.8h4.6v4.6h2.3v2.3h-2.3v9.3c0 .8.2 1.3.7 1.7.5.4 1 .6 1.4.6h.2v2.3h-2.3c-1.3 0-2.3-.5-3.3-1.4-.9-.9-1.4-2-1.4-3.3v-9.3h-2.3v-2.3h2.3l.1-4.5zm14 4.7h4.6c1.3 0 2.3.5 3.2 1.4.9.9 1.4 2 1.4 3.3v6.9c0 1.3-.5 2.3-1.4 3.3-.9.9-2 1.4-3.3 1.4h-4.6c-1.3 0-2.3-.5-3.3-1.4-.9-.9-1.4-2-1.4-3.3v-6.9c0-1.3.5-2.3 1.4-3.2 1-1.1 2.1-1.5 3.4-1.5zm0 4.6v6.9c0 .6.2 1.2.7 1.6.5.5 1 .7 1.6.7.6 0 1.2-.2 1.7-.7.5-.5.7-1 .7-1.6v-6.9c0-.6-.2-1.2-.7-1.6-.5-.5-1-.7-1.7-.7-.6 0-1.2.2-1.6.7-.5.4-.7.9-.7 1.6zm30.3-4.6v16.2H126v-2.3c-.2 1.5-1 2.3-2.3 2.3h-2.3c-1.3 0-2.3-.5-3.3-1.4-.9-.9-1.4-2-1.4-3.3V65.5h4.6v11.6c0 .6.2 1.2.7 1.6.5.5 1 .7 1.6.7.6 0 1.2-.2 1.7-.7.5-.5.7-1 .7-1.6V65.5l4.6.1zm14 4.6h-2.3c-.2-1.5-.9-2.3-2.2-2.3-.8 0-1.4.2-1.8.5-.4.3-.6.8-.6 1.4 0 .7 1.1 1.6 3.4 2.8 1.8 1 2.9 1.8 3.2 2.4.3.7.4 1.3.4 2.1 0 1.3-.5 2.4-1.4 3.3-.9.9-2 1.4-3.3 1.4h-2.3c-3.1 0-4.6-1.6-4.6-4.6h2.3c.2 1.6.9 2.3 2.2 2.3.8 0 1.5-.2 1.9-.5.4-.3.6-.8.6-1.5 0-.6-1.1-1.6-3.4-2.8-1.8-1-2.9-1.8-3.2-2.5-.3-.6-.4-1.3-.4-2.1 0-1.3.5-2.4 1.4-3.3.9-.9 2-1.4 3.3-1.4h2.3c2.8.2 4.3 1.8 4.5 4.8zm4.7 11.6v-4.6h4.6v4.6h-4.6zm0-6.9V61h4.6v13.9h-4.6z"/></svg>